<svg width="48" height="48" viewBox="0 0 48 48" fill="none" xmlns="http://www.w3.org/2000/svg">
<path fill-rule="evenodd" clip-rule="evenodd" d="M26.4468 6C24.501 5.99863 22.1493 7.7426 22.2 12.0983L22.2002 12.11L22.2001 31.0518C22.2001 32.53 22.541 33.532 22.9558 34.1331C23.366 34.7276 23.8277 34.9175 24.1844 34.9175C24.5411 34.9175 25.0028 34.7276 25.413 34.1331C25.8278 33.532 26.1687 32.53 26.1687 31.0518V14.1562C26.1687 14.1561 26.1687 14.1557 27.1687 14.1557C28.1687 14.1557 28.1687 14.1557 28.1687 14.1558V31.0518C28.1687 32.8174 27.7635 34.2482 27.0592 35.269C26.3503 36.2964 25.3198 36.9175 24.1844 36.9175C23.049 36.9175 22.0185 36.2964 21.3096 35.269C20.6053 34.2482 20.2001 32.8174 20.2001 31.0518V12.1157C20.1427 6.98757 23.0788 3.99762 26.4482 4C29.8101 4.00238 32.7778 6.98668 32.7778 12.11V34.6677C32.7778 40.6466 28.6374 43.9246 24.4064 43.9987C22.3105 44.0354 20.1954 43.2837 18.6032 41.6973C17.0027 40.1026 16 37.735 16 34.6677V14.1557C16 13.6034 16.4477 13.1557 17 13.1557C17.5523 13.1557 18 13.6034 18 14.1557V34.6677C18 37.2839 18.8445 39.1144 20.0149 40.2805C21.1935 41.455 22.7728 42.027 24.3714 41.999C27.5293 41.9437 30.7778 39.538 30.7778 34.6677V12.11C30.7778 7.76082 28.4014 6.00138 26.4468 6ZM27.1687 13.1557C27.721 13.1557 28.1687 13.6035 28.1687 14.1558L27.1687 14.1557L26.1687 14.1562C26.1687 13.6039 26.6164 13.1557 27.1687 13.1557Z" fill="#002D72"/>
</svg>
