<svg width="48" height="48" viewBox="0 0 48 48" fill="none" xmlns="http://www.w3.org/2000/svg">
<path fill-rule="evenodd" clip-rule="evenodd" d="M24.9759 35.3978L34.6717 25.702C35.0622 25.3115 35.7032 25.3035 36.1034 25.6841C36.5036 26.0647 36.5114 26.6898 36.1209 27.0803L24.7685 38.4327C24.5524 38.6488 24.2596 38.7478 23.9733 38.7286C23.6868 38.7479 23.3938 38.649 23.1775 38.4327L11.8252 27.0803C11.4346 26.6898 11.4425 26.0647 11.8427 25.6841C12.2429 25.3035 12.8839 25.3115 13.2744 25.7021L22.9759 35.4036L23.0079 5.18278C23.0085 4.6305 23.4567 4.18326 24.009 4.18384C24.5613 4.18442 25.0085 4.63262 25.0079 5.1849L24.9759 35.3978Z" fill="#002D72"/>
<path fill-rule="evenodd" clip-rule="evenodd" d="M11 43C11 42.4477 11.4477 42 12 42H36C36.5523 42 37 42.4477 37 43C37 43.5523 36.5523 44 36 44H12C11.4477 44 11 43.5523 11 43Z" fill="#002D72"/>
</svg>
