<svg width="48" height="48" viewBox="0 0 48 48" fill="none" xmlns="http://www.w3.org/2000/svg">
<path fill-rule="evenodd" clip-rule="evenodd" d="M36.7446 10.2419C37.0108 10.2412 37.2663 10.3466 37.4545 10.5348L40.6574 13.7377C41.0479 14.1282 41.0479 14.7614 40.6574 15.1519L31.1556 24.6537C30.7651 25.0442 30.1319 25.0442 29.7414 24.6537C29.3509 24.2632 29.3509 23.63 29.7414 23.2395L38.5361 14.4448L36.7514 12.6602L28.0635 21.4468C27.6752 21.8395 27.042 21.8431 26.6493 21.4548C26.2566 21.0665 26.253 20.4333 26.6413 20.0406L36.0363 10.5388C36.2235 10.3496 36.4784 10.2427 36.7446 10.2419Z" fill="#002D72"/>
<path fill-rule="evenodd" clip-rule="evenodd" d="M27.6751 19.7973C28.1978 19.9755 28.4771 20.5437 28.2989 21.0665L27.3373 23.8872L30.1453 22.9937C30.6716 22.8263 31.234 23.1172 31.4014 23.6434C31.5689 24.1697 31.278 24.7321 30.7517 24.8996L26.0542 26.3942C25.6944 26.5087 25.3009 26.4108 25.0367 26.1411C24.7725 25.8715 24.6827 25.476 24.8045 25.1186L26.4059 20.4211C26.5841 19.8984 27.1524 19.6191 27.6751 19.7973Z" fill="#002D72"/>
<path fill-rule="evenodd" clip-rule="evenodd" d="M40.8643 10.3678C40.2617 9.85083 39.4927 9.91106 39.0561 10.3477L37.4547 11.9491C37.0641 12.3396 36.431 12.3396 36.0405 11.9491C35.6499 11.5586 35.6499 10.9254 36.0405 10.5349L37.6419 8.93347C38.9078 7.66751 40.9005 7.72363 42.2162 8.89317C42.2308 8.90618 42.2451 8.91962 42.2589 8.93347C43.5249 10.1994 43.4688 12.1921 42.2992 13.5078C42.2862 13.5224 42.2728 13.5367 42.2589 13.5505L40.6575 15.152C40.267 15.5425 39.6338 15.5425 39.2433 15.152C38.8528 14.7614 38.8528 14.1283 39.2433 13.7377L40.8216 12.1594C41.3339 11.5654 41.2839 10.8085 40.8643 10.3678Z" fill="#002D72"/>
<path fill-rule="evenodd" clip-rule="evenodd" d="M8.52332 18.5018C8.52332 17.9495 8.97103 17.5018 9.52332 17.5018H28.2066C28.7589 17.5018 29.2066 17.9495 29.2066 18.5018C29.2066 19.0541 28.7589 19.5018 28.2066 19.5018H9.52332C8.97103 19.5018 8.52332 19.0541 8.52332 18.5018Z" fill="#002D72"/>
<path fill-rule="evenodd" clip-rule="evenodd" d="M8.52332 23.1993C8.52332 22.6471 8.97103 22.1993 9.52332 22.1993H23.5091C24.0614 22.1993 24.5091 22.6471 24.5091 23.1993C24.5091 23.7516 24.0614 24.1993 23.5091 24.1993H9.52332C8.97103 24.1993 8.52332 23.7516 8.52332 23.1993Z" fill="#002D72"/>
<path fill-rule="evenodd" clip-rule="evenodd" d="M8.52332 27.8967C8.52332 27.3444 8.97103 26.8967 9.52332 26.8967H28.2066C28.7589 26.8967 29.2066 27.3444 29.2066 27.8967C29.2066 28.449 28.7589 28.8967 28.2066 28.8967H9.52332C8.97103 28.8967 8.52332 28.449 8.52332 27.8967Z" fill="#002D72"/>
<path fill-rule="evenodd" clip-rule="evenodd" d="M7.0057 11.5003C7.00296 11.5131 7.00012 11.5333 7.00012 11.5624V37.9325C7.00012 37.9615 7.00296 37.9818 7.0057 37.9945C7.01844 37.9972 7.03867 38.0001 7.06774 38.0001H30.7688C30.7979 38.0001 30.8181 37.9972 30.8308 37.9945C30.8336 37.9818 30.8364 37.9615 30.8364 37.9325V22.8791C30.8364 22.3268 31.2841 21.8791 31.8364 21.8791C32.3887 21.8791 32.8364 22.3268 32.8364 22.8791V37.9325C32.8364 38.48 32.6495 39.014 32.2499 39.4136C31.8503 39.8132 31.3163 40.0001 30.7688 40.0001H7.06774C6.52021 40.0001 5.98622 39.8132 5.58661 39.4136C5.187 39.014 5.00012 38.48 5.00012 37.9325V11.5624C5.00012 11.0148 5.187 10.4809 5.58661 10.0812C5.98622 9.68163 6.52021 9.49475 7.06774 9.49475H30.7688C31.7849 9.49475 32.8285 10.2995 32.8364 11.5481L32.9429 15.8078C32.9567 16.3599 32.5203 16.8187 31.9682 16.8325C31.4161 16.8463 30.9573 16.4099 30.9435 15.8578L30.8367 11.5874C30.8365 11.579 30.8364 11.5707 30.8364 11.5624C30.8364 11.5436 30.833 11.5363 30.8323 11.5347C30.831 11.5318 30.8279 11.5264 30.8205 11.5194C30.8125 11.5119 30.8016 11.5048 30.7894 11.5C30.7772 11.4951 30.7695 11.4948 30.7688 11.4948H7.06774C7.03867 11.4948 7.01844 11.4976 7.0057 11.5003Z" fill="#002D72"/>
</svg>
