<svg width="48" height="48" viewBox="0 0 48 48" fill="none" xmlns="http://www.w3.org/2000/svg">
<path fill-rule="evenodd" clip-rule="evenodd" d="M10.7254 11.1946C10.19 11.1946 9.74758 11.637 9.74758 12.1724V19.352H38.3402V12.1724C38.3402 11.637 37.8978 11.1946 37.3624 11.1946H10.7254ZM7.63647 12.1724C7.63647 10.4711 9.02407 9.0835 10.7254 9.0835H37.3624C39.0637 9.0835 40.4513 10.4711 40.4513 12.1724V20.4075C40.4513 20.9905 39.9787 21.4631 39.3957 21.4631H8.69203C8.10906 21.4631 7.63647 20.9905 7.63647 20.4075V12.1724Z" fill="#002D72"/>
<path fill-rule="evenodd" clip-rule="evenodd" d="M7.63647 20.4075C7.63647 19.8246 8.10906 19.352 8.69203 19.352H39.3957C39.9787 19.352 40.4513 19.8246 40.4513 20.4075V38.9111C40.4513 40.6124 39.0637 42 37.3624 42H10.7254C9.02407 42 7.63647 40.6124 7.63647 38.9111V20.4075ZM9.74758 21.4631V38.9111C9.74758 39.4465 10.19 39.8889 10.7254 39.8889H37.3624C37.8978 39.8889 38.3402 39.4465 38.3402 38.9111V21.4631H9.74758Z" fill="#002D72"/>
<path fill-rule="evenodd" clip-rule="evenodd" d="M13.7755 4C14.3585 4 14.8311 4.47259 14.8311 5.05555V15.324C14.8311 15.907 14.3585 16.3796 13.7755 16.3796C13.1926 16.3796 12.72 15.907 12.72 15.324V5.05555C12.72 4.47259 13.1926 4 13.7755 4Z" fill="#002D72"/>
<path fill-rule="evenodd" clip-rule="evenodd" d="M34.3121 4C34.8951 4 35.3677 4.47259 35.3677 5.05555V15.324C35.3677 15.907 34.8951 16.3796 34.3121 16.3796C33.7292 16.3796 33.2566 15.907 33.2566 15.324V5.05555C33.2566 4.47259 33.7292 4 34.3121 4Z" fill="#002D72"/>
<path fill-rule="evenodd" clip-rule="evenodd" d="M14 27C14 26.4477 14.4477 26 15 26H33C33.5523 26 34 26.4477 34 27C34 27.5523 33.5523 28 33 28H15C14.4477 28 14 27.5523 14 27Z" fill="#002D72"/>
<path fill-rule="evenodd" clip-rule="evenodd" d="M18 33C18 32.4477 18.4477 32 19 32H29C29.5523 32 30 32.4477 30 33C30 33.5523 29.5523 34 29 34H19C18.4477 34 18 33.5523 18 33Z" fill="#002D72"/>
</svg>
