<svg width="48" height="48" viewBox="0 0 48 48" fill="none" xmlns="http://www.w3.org/2000/svg">
<path fill-rule="evenodd" clip-rule="evenodd" d="M6.86353 20.3446C6.86353 19.7554 7.34113 19.2778 7.93029 19.2778H15.0776C15.6668 19.2778 16.1444 19.7554 16.1444 20.3446V27.4919C16.1444 28.0811 15.6668 28.5587 15.0776 28.5587H7.93029C7.34113 28.5587 6.86353 28.0811 6.86353 27.4919V20.3446ZM8.99706 21.4114V26.4252H14.0109V21.4114H8.99706Z" fill="#002D72"/>
<path fill-rule="evenodd" clip-rule="evenodd" d="M6.65015 33.7858C6.65015 33.1966 7.12775 32.719 7.71691 32.719H14.8642C15.4534 32.719 15.931 33.1966 15.931 33.7858V40.9331C15.931 41.5223 15.4534 41.9999 14.8642 41.9999H7.71691C7.12775 41.9999 6.65015 41.5223 6.65015 40.9331V33.7858ZM8.78368 34.8525V39.8663H13.7975V34.8525H8.78368Z" fill="#002D72"/>
<path fill-rule="evenodd" clip-rule="evenodd" d="M21.0514 10.2103C21.0514 9.62116 21.529 9.14355 22.1182 9.14355H39.8265C40.4156 9.14355 40.8933 9.62116 40.8933 10.2103C40.8933 10.7995 40.4156 11.2771 39.8265 11.2771H22.1182C21.529 11.2771 21.0514 10.7995 21.0514 10.2103Z" fill="#002D72"/>
<path fill-rule="evenodd" clip-rule="evenodd" d="M21.1582 23.9713C21.1582 23.3821 21.6358 22.9045 22.225 22.9045H39.9333C40.5225 22.9045 41.0001 23.3821 41.0001 23.9713C41.0001 24.5605 40.5225 25.0381 39.9333 25.0381H22.225C21.6358 25.0381 21.1582 24.5605 21.1582 23.9713Z" fill="#002D72"/>
<path fill-rule="evenodd" clip-rule="evenodd" d="M20.9447 37.306C20.9447 36.7169 21.4223 36.2393 22.0115 36.2393H39.7198C40.309 36.2393 40.7866 36.7169 40.7866 37.306C40.7866 37.8952 40.309 38.3728 39.7198 38.3728H22.0115C21.4223 38.3728 20.9447 37.8952 20.9447 37.306Z" fill="#002D72"/>
<path fill-rule="evenodd" clip-rule="evenodd" d="M7.32114 9.74433C7.69637 9.29011 8.36876 9.22607 8.82298 9.60129L11.2765 11.6282C11.7308 12.0034 11.7948 12.6758 11.4196 13.13C11.0444 13.5842 10.372 13.6482 9.91774 13.273L7.46417 11.2462C7.00996 10.8709 6.94592 10.1985 7.32114 9.74433Z" fill="#002D72"/>
<path fill-rule="evenodd" clip-rule="evenodd" d="M16.5786 6.46894C16.9952 6.88554 16.9952 7.56098 16.5786 7.97758L11.3515 13.2047C10.9349 13.6213 10.2594 13.6213 9.84284 13.2047C9.42625 12.7881 9.42625 12.1127 9.84284 11.6961L15.07 6.46894C15.4866 6.05234 16.162 6.05234 16.5786 6.46894Z" fill="#002D72"/>
</svg>
