<svg width="48" height="48" viewBox="0 0 48 48" fill="none" xmlns="http://www.w3.org/2000/svg">
<path fill-rule="evenodd" clip-rule="evenodd" d="M5.88245 10.6237C5.88245 8.65855 7.54099 7 9.50612 7H38.1935C40.1586 7 41.8172 8.65855 41.8172 10.6237L41.8172 10.6278L41.7165 35.1882C41.7142 35.7441 41.2617 36.193 40.7058 36.1907C40.1499 36.1884 39.7011 35.7359 39.7034 35.18L39.804 10.6237C39.804 10.623 39.804 10.6224 39.804 10.6217C39.8029 9.76924 39.0462 9.01315 38.1935 9.01315H9.50612C8.65283 9.01315 7.8956 9.77038 7.8956 10.6237V32.567C7.8956 33.4203 8.65283 34.1775 9.50612 34.1775H34.0666C34.6225 34.1775 35.0731 34.6282 35.0731 35.1841C35.0731 35.74 34.6225 36.1907 34.0666 36.1907H9.50612C7.54099 36.1907 5.88245 34.5321 5.88245 32.567V10.6237Z" fill="#002D72"/>
<path fill-rule="evenodd" clip-rule="evenodd" d="M40.7645 34.179C41.3196 34.209 41.7453 34.6833 41.7153 35.2384C41.6789 35.9121 41.6947 36.6407 41.7108 37.3847C41.7159 37.6181 41.721 37.8529 41.7245 38.0881C41.738 38.9881 41.7352 40.0097 41.5049 40.7263C41.3884 41.0887 41.1407 41.6101 40.5751 41.8656C39.9877 42.131 39.4044 41.9576 38.9844 41.7383C38.1771 41.3167 37.1842 40.319 35.9176 38.7563L33.3173 35.856C32.9462 35.4421 32.9809 34.8057 33.3948 34.4346C33.8087 34.0635 34.4451 34.0982 34.8162 34.5122L37.4333 37.4312C37.4446 37.4438 37.4556 37.4567 37.4662 37.4698C38.5182 38.7693 39.2197 39.4627 39.6569 39.7867C39.7095 39.41 39.7226 38.8537 39.7116 38.1183C39.7085 37.9155 39.7039 37.7024 39.699 37.4827C39.6824 36.7243 39.6641 35.8875 39.7051 35.1298C39.7351 34.5747 40.2094 34.149 40.7645 34.179ZM39.5588 40.1847C39.5587 40.1845 39.5602 40.1811 39.5638 40.1755C39.5606 40.1821 39.5589 40.1849 39.5588 40.1847ZM39.9982 39.9909C40.0025 39.9919 40.0049 39.9927 40.0049 39.9928C40.005 39.993 40.0028 39.9925 39.9982 39.9909Z" fill="#002D72"/>
</svg>
