<svg width="48" height="48" viewBox="0 0 48 48" fill="none" xmlns="http://www.w3.org/2000/svg">
<path fill-rule="evenodd" clip-rule="evenodd" d="M18.1689 8.21424C12.5053 8.21424 7.91407 12.8055 7.91407 18.4691C7.91407 24.1327 12.5053 28.724 18.1689 28.724C23.8325 28.724 28.4238 24.1327 28.4238 18.4691C28.4238 12.8055 23.8325 8.21424 18.1689 8.21424ZM6.08582 18.4691C6.08582 11.7958 11.4956 6.38599 18.1689 6.38599C24.8423 6.38599 30.2521 11.7958 30.2521 18.4691C30.2521 25.1424 24.8423 30.5522 18.1689 30.5522C11.4956 30.5522 6.08582 25.1424 6.08582 18.4691Z" fill="#002D72"/>
<path fill-rule="evenodd" clip-rule="evenodd" d="M28.754 32.5968C28.3971 32.2398 28.3971 31.661 28.754 31.3041L30.9916 29.0665C31.3486 28.7095 31.9274 28.7095 32.2844 29.0665L41.235 38.0171C41.592 38.3741 41.592 38.9529 41.235 39.3098L38.9974 41.5474C38.6404 41.9044 38.0616 41.9044 37.7047 41.5474L28.754 32.5968ZM30.6932 31.9504L38.351 39.6083L39.2959 38.6635L31.638 31.0056L30.6932 31.9504Z" fill="#002D72"/>
<path fill-rule="evenodd" clip-rule="evenodd" d="M25.4271 25.8341C25.7803 25.4734 26.3591 25.4673 26.7198 25.8205L31.1873 30.1951C31.5481 30.5483 31.5542 31.127 31.2009 31.4878C30.8477 31.8485 30.269 31.8546 29.9082 31.5013L25.4407 27.1268C25.08 26.7736 25.0739 26.1949 25.4271 25.8341Z" fill="#002D72"/>
<path fill-rule="evenodd" clip-rule="evenodd" d="M38.8367 39.1369C39.1937 38.7799 39.7725 38.7799 40.1295 39.1369L41.2463 40.2538C41.6033 40.6108 41.6033 41.1896 41.2463 41.5466C40.8893 41.9036 40.3105 41.9035 39.9535 41.5465L38.8367 40.4296C38.4797 40.0726 38.4797 39.4938 38.8367 39.1369Z" fill="#002D72"/>
<path fill-rule="evenodd" clip-rule="evenodd" d="M18.1689 13.8318C18.6737 13.8318 19.083 14.2411 19.083 14.7459V22.285C19.083 22.7898 18.6737 23.1991 18.1689 23.1991C17.664 23.1991 17.2548 22.7898 17.2548 22.285V14.7459C17.2548 14.2411 17.664 13.8318 18.1689 13.8318Z" fill="#002D72"/>
<path fill-rule="evenodd" clip-rule="evenodd" d="M13.532 18.4691C13.532 17.9642 13.9413 17.5549 14.4461 17.5549H21.8921C22.397 17.5549 22.8062 17.9642 22.8062 18.4691C22.8062 18.9739 22.397 19.3832 21.8921 19.3832H14.4461C13.9413 19.3832 13.532 18.9739 13.532 18.4691Z" fill="#002D72"/>
</svg>
