<svg width="48" height="48" viewBox="0 0 48 48" fill="none" xmlns="http://www.w3.org/2000/svg">
<path fill-rule="evenodd" clip-rule="evenodd" d="M9.95191 36.4078C9.95191 35.3654 10.8279 34.6316 11.7789 34.6316H20.5087C21.8912 34.6316 23.0676 35.1313 23.9842 35.8707C24.9549 35.0725 26.1969 34.6316 27.4924 34.6316H36.2222C37.1732 34.6316 38.0492 35.3654 38.0492 36.4078L38.0491 37.2943C38.049 37.8131 38.049 38.483 38.0492 39.0877C38.0494 39.64 37.6018 40.0878 37.0495 40.088C36.4972 40.0881 36.0494 39.6405 36.0492 39.0882C36.049 38.4832 36.049 37.813 36.0491 37.2941L36.0492 36.6316H27.4924C26.4038 36.6316 25.4103 37.1079 24.7817 37.8944C24.5967 38.126 24.3184 38.2636 24.0219 38.2699C23.7255 38.2763 23.4416 38.1508 23.2468 37.9273C22.5755 37.1573 21.6417 36.6316 20.5087 36.6316H11.9506C11.9497 36.7334 11.9484 36.8514 11.9469 36.9816C11.9393 37.6535 11.9281 38.6485 11.9514 39.3949C11.9687 39.9469 11.5352 40.4084 10.9832 40.4256C10.4312 40.4429 9.96965 40.0094 9.95238 39.4574C9.92749 38.6617 9.93996 37.562 9.94753 36.8945C9.94997 36.6789 9.95191 36.5084 9.95191 36.4078Z" fill="#002D72"/>
<path fill-rule="evenodd" clip-rule="evenodd" d="M20.0931 40.756C20.0317 40.7503 19.962 40.7496 19.8649 40.7496L7 40.7497C6.44772 40.7497 6 40.3019 6 39.7497C6 39.1974 6.44771 38.7497 7 38.7497L19.8747 38.7496C19.9633 38.7496 20.1177 38.7496 20.2799 38.7648C20.4287 38.7788 20.6602 38.8112 20.8936 38.9128L23.5289 39.9362C23.79 40.0331 23.9612 39.9999 24.0347 39.9655C24.0671 39.9503 24.1002 39.9368 24.1341 39.9252L26.8532 38.9895C27.079 38.8954 27.3004 38.8645 27.4444 38.851C27.6066 38.8358 27.7611 38.8359 27.8496 38.8359L27.8595 38.8359L40.9934 38.7497C41.5457 38.746 41.9964 39.1908 42 39.7431C42.0036 40.2953 41.5588 40.746 41.0066 40.7496L27.866 40.8359L27.8595 40.8359C27.7623 40.8359 27.6926 40.8365 27.6313 40.8423C27.6169 40.8436 27.6061 40.845 27.5985 40.8461C27.5798 40.8539 27.5608 40.8611 27.5416 40.8677L24.8284 41.8013C24.1812 42.0843 23.4585 42.0461 22.8215 41.807L22.8109 41.803L20.1461 40.7681C20.1393 40.7654 20.1325 40.7627 20.1258 40.7599C20.1182 40.7588 20.1074 40.7574 20.0931 40.756ZM27.5854 40.8484C27.5853 40.8485 27.5855 40.8484 27.5854 40.8484V40.8484Z" fill="#002D72"/>
<path fill-rule="evenodd" clip-rule="evenodd" d="M24 36.2701C24.5523 36.2701 25 36.7179 25 37.2701L25 40.7197C25 41.272 24.5523 41.7197 24 41.7197C23.4477 41.7197 23 41.272 23 40.7197L23 37.2701C23 36.7179 23.4477 36.2701 24 36.2701Z" fill="#002D72"/>
<path fill-rule="evenodd" clip-rule="evenodd" d="M23.3955 5.91785C23.4127 5.91703 23.4299 5.91663 23.447 5.91663H24.5593C24.5765 5.91663 24.5937 5.91703 24.6109 5.91785C27.7892 6.0692 30.5052 7.35962 32.2478 9.30022C33.9988 11.2502 34.7591 13.8645 33.9356 16.4996L33.9293 16.519L33.3732 18.1875C33.3595 18.2285 33.3434 18.2687 33.3249 18.3079L29.7099 25.9549C29.5308 26.3337 29.1494 26.5753 28.7305 26.5753H19.2759C18.857 26.5753 18.4756 26.3337 18.2965 25.9549L14.6815 18.3079C14.663 18.2687 14.6469 18.2285 14.6332 18.1875L14.0771 16.519L14.0708 16.4996C13.2473 13.8645 14.0076 11.2502 15.7586 9.30022C17.5012 7.35962 20.2172 6.0692 23.3955 5.91785ZM23.4734 8.08329C20.8237 8.21556 18.6828 9.28663 17.3707 10.7478C16.0652 12.2018 15.5736 14.0329 16.1359 15.844L16.6681 17.4406L19.9621 24.4086H28.0443L31.3383 17.4406L31.8705 15.844C32.4328 14.0329 31.9412 12.2018 30.6356 10.7478C29.3236 9.28663 27.1827 8.21556 24.533 8.08329H23.4734Z" fill="#002D72"/>
<path fill-rule="evenodd" clip-rule="evenodd" d="M19.6665 28.6666C19.6665 28.0683 20.1515 27.5833 20.7498 27.5833H27.2498C27.8481 27.5833 28.3332 28.0683 28.3332 28.6666C28.3332 29.2649 27.8481 29.7499 27.2498 29.7499H20.7498C20.1515 29.7499 19.6665 29.2649 19.6665 28.6666Z" fill="#002D72"/>
<path fill-rule="evenodd" clip-rule="evenodd" d="M20.75 31.9166C20.75 31.3183 21.235 30.8333 21.8333 30.8333H26.1667C26.765 30.8333 27.25 31.3183 27.25 31.9166C27.25 32.5149 26.765 32.9999 26.1667 32.9999H21.8333C21.235 32.9999 20.75 32.5149 20.75 31.9166Z" fill="#002D72"/>
</svg>
