<svg width="48" height="48" viewBox="0 0 48 48" fill="none" xmlns="http://www.w3.org/2000/svg">
<path fill-rule="evenodd" clip-rule="evenodd" d="M31.4954 28.1962C31.4954 27.6439 31.9432 27.1962 32.4954 27.1962H35.1853C36.6482 27.1962 37.7261 28.1784 38.1659 29.3514C38.1707 29.3641 38.1752 29.377 38.1795 29.3899L40.977 37.8899L40.9829 37.9084C41.6022 39.9211 40.192 42 37.9828 42H10.0081C7.79887 42 6.38871 39.9211 7.00802 37.9084L7.01511 37.8863L9.81258 29.4939C9.81648 29.4822 9.8206 29.4705 9.82493 29.459C10.2648 28.286 11.3427 27.3038 12.8056 27.3038H15.4954C16.0477 27.3038 16.4954 27.7515 16.4954 28.3038C16.4954 28.856 16.0477 29.3038 15.4954 29.3038H12.8056C12.3362 29.3038 11.9113 29.6069 11.7034 30.1459L8.91664 38.5062C8.68244 39.2872 9.20796 40 10.0081 40H37.9828C38.7834 40 39.3091 39.2863 39.0738 38.5047L36.2868 30.0367C36.0787 29.4987 35.6542 29.1962 35.1853 29.1962H32.4954C31.9432 29.1962 31.4954 28.7485 31.4954 28.1962Z" fill="#002D72"/>
<path fill-rule="evenodd" clip-rule="evenodd" d="M23.9955 8C19.8136 8 16.4955 11.3181 16.4955 15.5C16.4955 16.4572 16.946 17.9441 17.7393 19.7516C18.5149 21.5188 19.5568 23.4596 20.6102 25.273C21.6616 27.0831 22.7146 28.7493 23.5054 29.9639C23.6831 30.2369 23.8475 30.4868 23.9955 30.7103C24.1435 30.4868 24.3078 30.2369 24.4856 29.9639C25.2764 28.7493 26.3293 27.0831 27.3808 25.273C28.4342 23.4596 29.4761 21.5188 30.2517 19.7516C31.0449 17.9441 31.4955 16.4572 31.4955 15.5C31.4955 11.4174 28.1692 8 23.9955 8ZM23.9955 32.5C23.1735 33.0696 23.1735 33.0695 23.1734 33.0693L23.1666 33.0595L23.1475 33.0319L23.0747 32.9258C23.0113 32.833 22.9187 32.6971 22.8012 32.5228C22.5661 32.1743 22.2311 31.6722 21.8293 31.0551C21.0264 29.8219 19.9543 28.1257 18.8808 26.2776C17.8092 24.4328 16.7261 22.4195 15.9079 20.5554C15.1074 18.7315 14.4955 16.9099 14.4955 15.5C14.4955 10.2135 18.709 6 23.9955 6C29.2902 6 33.4955 10.3294 33.4955 15.5C33.4955 16.9099 32.8835 18.7315 32.083 20.5554C31.2649 22.4195 30.1818 24.4328 29.1102 26.2776C28.0366 28.1257 26.9646 29.8219 26.1616 31.0551C25.7599 31.6722 25.4248 32.1743 25.1898 32.5228C25.0723 32.6971 24.9797 32.833 24.9163 32.9258L24.8434 33.0319L24.8244 33.0595L24.818 33.0687C24.8179 33.0689 24.8174 33.0696 23.9955 32.5ZM23.9955 32.5L24.8174 33.0696C24.6306 33.3392 24.3235 33.5 23.9955 33.5C23.6675 33.5 23.3602 33.3389 23.1734 33.0693L23.9955 32.5Z" fill="#002D72"/>
<path fill-rule="evenodd" clip-rule="evenodd" d="M24.1032 12.3038C22.3792 12.3038 20.907 13.7018 20.907 15.5C20.907 17.224 22.305 18.6962 24.1032 18.6962C25.8272 18.6962 27.2994 17.2982 27.2994 15.5C27.2994 13.7928 25.8104 12.3038 24.1032 12.3038ZM18.907 15.5C18.907 12.5641 21.3082 10.3038 24.1032 10.3038C26.915 10.3038 29.2994 12.6883 29.2994 15.5C29.2994 18.436 26.8982 20.6962 24.1032 20.6962C21.1672 20.6962 18.907 18.2951 18.907 15.5Z" fill="#002D72"/>
</svg>
