<svg width="48" height="48" viewBox="0 0 48 48" fill="none" xmlns="http://www.w3.org/2000/svg">
<path fill-rule="evenodd" clip-rule="evenodd" d="M14.4712 18.5296C14.6228 18.1494 14.9907 17.9 15.4 17.9H43C43.3316 17.9 43.6417 18.0644 43.8278 18.339C44.0139 18.6135 44.0517 18.9624 43.9289 19.2705L37.0288 36.5705C36.8772 36.9506 36.5093 37.2 36.1 37.2H8.5C8.16836 37.2 7.85829 37.0356 7.67222 36.7611C7.48615 36.4865 7.44829 36.1376 7.57116 35.8296L14.4712 18.5296ZM16.0778 19.9L9.97545 35.2H35.4222L41.5246 19.9H16.0778Z" fill="#002D72"/>
<path fill-rule="evenodd" clip-rule="evenodd" d="M4 12C4 11.4477 4.44772 11 5 11H18.8C19.0652 11 19.3196 11.1054 19.5071 11.2929L22.7142 14.5H36.1C36.6523 14.5 37.1 14.9477 37.1 15.5V18.9C37.1 19.4523 36.6523 19.9 36.1 19.9H16.0778L9.42885 36.5705C9.27723 36.9506 8.90927 37.2 8.5 37.2C6.04772 37.2 4 35.1523 4 32.7V12ZM6 13V32.7C6 33.8269 6.80566 34.8172 7.85757 35.1114L14.4712 18.5295C14.6228 18.1494 14.9907 17.9 15.4 17.9H35.1V16.5H22.3C22.0348 16.5 21.7804 16.3946 21.5929 16.2071L18.3858 13H6Z" fill="#002D72"/>
</svg>
