<svg width="48" height="48" viewBox="0 0 48 48" fill="none" xmlns="http://www.w3.org/2000/svg">
<path fill-rule="evenodd" clip-rule="evenodd" d="M9.63025 6C7.66156 6 6 7.70594 6 9.72721V32.2975C6 34.3188 7.66156 36.0247 9.63025 36.0247H33.7452L36.0898 38.7097C37.3587 40.317 38.3534 41.3432 39.1622 41.7769C39.583 42.0024 40.1673 42.1808 40.7558 41.9078C41.3223 41.6449 41.5705 41.1086 41.6872 40.7359C41.918 39.9988 41.9208 38.9481 41.9072 38.0223C41.9037 37.7804 41.8986 37.5389 41.8935 37.2989V37.2987C41.8774 36.5335 41.8615 35.7841 41.898 35.0912C41.8995 35.0619 41.8999 35.0328 41.8991 35.0039C41.8991 35.0005 41.8991 34.9971 41.8992 34.9936L42 9.73145L42 9.72721C42 7.70594 40.3384 6 38.3697 6H9.63025ZM39.8826 35.0102C39.8824 35.0019 39.8823 34.9935 39.8824 34.9851L39.9832 9.72721V9.72522C39.982 8.84836 39.2239 8.07067 38.3697 8.07067H9.63025C8.77541 8.07067 8.01681 8.84954 8.01681 9.72721V32.2975C8.01681 33.1752 8.77541 33.954 9.63025 33.954H34.2353C34.6217 33.954 34.9574 34.1772 35.1267 34.5048L37.6083 37.3467C37.6196 37.3596 37.6306 37.3729 37.6412 37.3864C38.6951 38.723 39.3979 39.4362 39.8359 39.7694C39.8886 39.3821 39.9017 38.8098 39.8907 38.0534C39.8876 37.8448 39.8829 37.6256 39.8781 37.3996C39.8617 36.6298 39.8436 35.7814 39.8826 35.0102ZM39.7376 40.1788C39.7375 40.1786 39.739 40.1752 39.7426 40.1693C39.7395 40.1762 39.7377 40.1791 39.7376 40.1788ZM40.1778 39.9795C40.1822 39.9805 40.1845 39.9813 40.1845 39.9815C40.1846 39.9816 40.1824 39.9811 40.1778 39.9795Z" fill="#002D72"/>
<path fill-rule="evenodd" clip-rule="evenodd" d="M23.7535 16.2571C23.1483 16.2571 22.5494 16.8002 22.5494 17.6081C22.5494 18.1604 22.1017 18.6081 21.5494 18.6081C20.9972 18.6081 20.5494 18.1604 20.5494 17.6081C20.5494 15.8192 21.9241 14.2571 23.7535 14.2571H24.4882C26.3176 14.2571 27.6923 15.8192 27.6923 17.6081C27.6923 18.9077 27.0341 20.1382 25.932 20.81C25.4501 21.1037 25.1209 21.676 25.1209 22.3223V23.4857C25.1209 24.0379 24.6732 24.4857 24.1209 24.4857C23.5686 24.4857 23.1209 24.0379 23.1209 23.4857V22.3223C23.1209 21.0151 23.7829 19.7777 24.8911 19.1022C25.3669 18.8122 25.6923 18.2469 25.6923 17.6081C25.6923 16.8002 25.0934 16.2571 24.4882 16.2571H23.7535Z" fill="#002D72"/>
<path d="M25.6637 27.0858C25.6637 27.9379 24.973 28.6287 24.1209 28.6287C23.2688 28.6287 22.578 27.9379 22.578 27.0858C22.578 26.2337 23.2688 25.543 24.1209 25.543C24.973 25.543 25.6637 26.2337 25.6637 27.0858Z" fill="#002D72"/>
</svg>
