<svg width="48" height="48" viewBox="0 0 48 48" fill="none" xmlns="http://www.w3.org/2000/svg">
<path fill-rule="evenodd" clip-rule="evenodd" d="M3.99207 24.2121C3.99207 23.6554 4.44334 23.2042 5.00002 23.2042H19.2122C19.7689 23.2042 20.2202 23.6554 20.2202 24.2121C20.2202 26.2761 21.8856 27.9416 23.9496 27.9416C26.0136 27.9416 27.6791 26.2761 27.6791 24.2121C27.6791 23.6554 28.1303 23.2042 28.687 23.2042V24.2121C28.687 23.2042 28.6869 23.2042 28.687 23.2042H42.9999C43 23.2042 43 23.2042 43 24.2121L42.9999 23.2042C43.5565 23.2042 44.008 23.6554 44.008 24.2121V36.4084C44.008 38.0738 42.6495 39.4323 40.9841 39.4323H7.01594C5.35051 39.4323 3.99207 38.0738 3.99207 36.4084V24.2121ZM41.9921 25.2201H29.6072C29.1319 27.9154 26.783 29.9575 23.9496 29.9575C21.1162 29.9575 18.7674 27.9154 18.2921 25.2201H6.00798V36.4084C6.00798 36.9605 6.46386 37.4164 7.01594 37.4164H40.9841C41.5362 37.4164 41.9921 36.9605 41.9921 36.4084V25.2201Z" fill="#002D72"/>
<path fill-rule="evenodd" clip-rule="evenodd" d="M7.01594 15.7453C6.46386 15.7453 6.00798 16.2012 6.00798 16.7532V23.2042H41.9921V16.7532C41.9921 16.2012 41.5362 15.7453 40.9841 15.7453H7.01594ZM3.99207 16.7532C3.99207 15.0878 5.35051 13.7294 7.01594 13.7294H40.9841C42.6495 13.7294 44.008 15.0878 44.008 16.7532V24.2121C44.008 24.7688 43.5567 25.2201 43 25.2201H5.00002C4.44334 25.2201 3.99207 24.7688 3.99207 24.2121V16.7532Z" fill="#002D72"/>
<path fill-rule="evenodd" clip-rule="evenodd" d="M21.3289 11.0079C20.7769 11.0079 20.321 11.4638 20.321 12.0159V13.7294H27.7799V12.0159C27.7799 11.4638 27.324 11.0079 26.7719 11.0079H21.3289ZM18.3051 12.0159C18.3051 10.3504 19.6635 8.992 21.3289 8.992H26.7719C28.4373 8.992 29.7958 10.3504 29.7958 12.0159V14.7374C29.7958 15.294 29.3445 15.7453 28.7878 15.7453H19.313C18.7563 15.7453 18.3051 15.294 18.3051 14.7374V12.0159Z" fill="#002D72"/>
</svg>
