<svg width="48" height="48" viewBox="0 0 48 48" fill="none" xmlns="http://www.w3.org/2000/svg">
<path fill-rule="evenodd" clip-rule="evenodd" d="M24.0002 6.04976C17.1269 6.04976 11.5085 11.6682 11.5085 18.5415V32.0829C11.5085 32.6627 11.0385 33.1326 10.4588 33.1326C9.87903 33.1326 9.40906 32.6627 9.40906 32.0829V18.5415C9.40906 10.5087 15.9674 3.95032 24.0002 3.95032C32.033 3.95032 38.5914 10.5087 38.5914 18.5415V32.0829C38.5914 32.6627 38.1214 33.1326 37.5417 33.1326C36.9619 33.1326 36.4919 32.6627 36.4919 32.0829V18.5415C36.4919 11.6682 30.8735 6.04976 24.0002 6.04976Z" fill="#002D72"/>
<path fill-rule="evenodd" clip-rule="evenodd" d="M10.4586 22.2157C7.99415 22.2157 6.04976 24.16 6.04976 26.6245C6.04976 29.0759 8.08597 31.0333 10.4586 31.0333C11.0384 31.0333 11.5083 31.5033 11.5083 32.0831C11.5083 32.6628 11.0384 33.1328 10.4586 33.1328C6.95278 33.1328 3.95032 30.2615 3.95032 26.6245C3.95032 23.0006 6.83466 20.1162 10.4586 20.1162C11.0384 20.1162 11.5083 20.5862 11.5083 21.1659C11.5083 21.7457 11.0384 22.2157 10.4586 22.2157Z" fill="#002D72"/>
<path fill-rule="evenodd" clip-rule="evenodd" d="M36.4918 21.1659C36.4918 20.5862 36.9618 20.1162 37.5415 20.1162C41.1655 20.1162 44.0498 23.0006 44.0498 26.6245C44.0498 30.2615 41.0474 33.1328 37.5415 33.1328C36.9618 33.1328 36.4918 32.6628 36.4918 32.0831C36.4918 31.5033 36.9618 31.0333 37.5415 31.0333C39.9142 31.0333 41.9504 29.0759 41.9504 26.6245C41.9504 24.16 40.006 22.2157 37.5415 22.2157C36.9618 22.2157 36.4918 21.7457 36.4918 21.1659Z" fill="#002D72"/>
<path fill-rule="evenodd" clip-rule="evenodd" d="M24.9556 41.1055C24.8974 40.5287 25.3178 40.0138 25.8946 39.9556C29.0828 39.6336 31.4598 39.0439 33.3526 37.8287C35.2219 36.6285 36.733 34.7426 38.0297 31.5996C38.2508 31.0637 38.8645 30.8085 39.4004 31.0296C39.9363 31.2507 40.1915 31.8644 39.9704 32.4004C38.563 35.8117 36.819 38.098 34.4868 39.5954C32.178 41.0777 29.4072 41.711 26.1055 42.0444C25.5287 42.1027 25.0139 41.6823 24.9556 41.1055Z" fill="#002D72"/>
<path fill-rule="evenodd" clip-rule="evenodd" d="M24 40.0498C23.4752 40.0498 23.0498 40.4752 23.0498 41C23.0498 41.5249 23.4752 41.9503 24 41.9503C24.5249 41.9503 24.9503 41.5249 24.9503 41C24.9503 40.4752 24.5249 40.0498 24 40.0498ZM20.9503 41C20.9503 39.3157 22.3157 37.9503 24 37.9503C25.6844 37.9503 27.0498 39.3157 27.0498 41C27.0498 42.6844 25.6844 44.0498 24 44.0498C22.3157 44.0498 20.9503 42.6844 20.9503 41Z" fill="#002D72"/>
</svg>
