<svg width="48" height="48" viewBox="0 0 48 48" fill="none" xmlns="http://www.w3.org/2000/svg">
<path fill-rule="evenodd" clip-rule="evenodd" d="M8.97675 15.9082C8.44182 15.9082 8 16.35 8 16.8849V22.5071H22.3082V15.9082H8.97675ZM6 16.8849C6 15.2455 7.33725 13.9082 8.97675 13.9082H23.3082C23.8604 13.9082 24.3082 14.3559 24.3082 14.9082V23.5071C24.3082 24.0593 23.8604 24.5071 23.3082 24.5071H7C6.44772 24.5071 6 24.0593 6 23.5071V16.8849Z" fill="#002D72"/>
<path fill-rule="evenodd" clip-rule="evenodd" d="M6 23.6057C6 23.0534 6.44772 22.6057 7 22.6057H23.3082C23.8604 22.6057 24.3082 23.0534 24.3082 23.6057V40.9022C24.3082 41.4545 23.8604 41.9022 23.3082 41.9022H8.97675C7.33725 41.9022 6 40.565 6 38.9255V23.6057ZM8 24.6057V38.9255C8 39.4604 8.44182 39.9022 8.97675 39.9022H22.3082V24.6057H8Z" fill="#002D72"/>
<path fill-rule="evenodd" clip-rule="evenodd" d="M22.3081 14.9082C22.3081 14.3559 22.7558 13.9082 23.3081 13.9082H31.1163C32.7558 13.9082 34.093 15.2455 34.093 16.8849V38.9257C34.093 40.5652 32.7558 41.9024 31.1163 41.9024H23.3081C22.7558 41.9024 22.3081 41.4547 22.3081 40.9024V14.9082ZM24.3081 39.9024H31.1163C31.6512 39.9024 32.093 39.4606 32.093 38.9257V16.8849C32.093 16.35 31.6512 15.9082 31.1163 15.9082H24.3081V39.9024Z" fill="#002D72"/>
<path fill-rule="evenodd" clip-rule="evenodd" d="M11.9999 10.9547C11.9999 10.4024 12.4476 9.95465 12.9999 9.95465H35.3662C36.8081 9.95465 38.0465 11.1931 38.0465 12.6349V36.6524C38.0465 38.014 36.9838 39.3326 35.4651 39.3326H33.1919C32.6396 39.3326 32.1919 38.8849 32.1919 38.3326C32.1919 37.7803 32.6396 37.3326 33.1919 37.3326H35.4651C35.7255 37.3326 36.0465 37.0697 36.0465 36.6524V12.6349C36.0465 12.2976 35.7035 11.9547 35.3662 11.9547H12.9999C12.4476 11.9547 11.9999 11.5069 11.9999 10.9547Z" fill="#002D72"/>
<path fill-rule="evenodd" clip-rule="evenodd" d="M16.5 7.09998C16.5 6.54769 16.9477 6.09998 17.5 6.09998H39.3197C40.7616 6.09998 42 7.33839 42 8.78021V32.7977C42 34.1594 40.9373 35.4779 39.4186 35.4779H37.3806C36.8283 35.4779 36.3806 35.0302 36.3806 34.4779C36.3806 33.9256 36.8283 33.4779 37.3806 33.4779H39.4186C39.679 33.4779 40 33.2151 40 32.7977V8.78021C40 8.44296 39.657 8.09998 39.3197 8.09998H17.5C16.9477 8.09998 16.5 7.65226 16.5 7.09998Z" fill="#002D72"/>
</svg>
