<svg width="24" height="24" viewBox="0 0 24 24" fill="none" xmlns="http://www.w3.org/2000/svg">
<path fill-rule="evenodd" clip-rule="evenodd" d="M2.14851 11.5626C2.14931 11.5617 2.15013 11.5609 2.15094 11.5601L7.42843 6.14842C7.62143 5.95053 7.93433 5.95053 8.12733 6.14842C8.32032 6.34632 8.32032 6.66718 8.12733 6.86508L3.68738 11.4179H21.4995C21.7759 11.4179 22 11.642 22 11.9184C22 12.1948 21.7759 12.4189 21.4995 12.4189H3.68738L8.12733 16.9717C8.32032 17.1696 8.32032 17.4905 8.12733 17.6884C7.93433 17.8863 7.62143 17.8863 7.42843 17.6884L2.15094 12.2767C2.15013 12.2759 2.14931 12.275 2.14851 12.2742C2.05681 12.1835 2 12.0576 2 11.9184C2 11.7792 2.05681 11.6533 2.14851 11.5626Z" fill="#002D72"/>
</svg>
