<svg width="48" height="48" viewBox="0 0 48 48" fill="none" xmlns="http://www.w3.org/2000/svg">
<path fill-rule="evenodd" clip-rule="evenodd" d="M9.79289 9.79289C10.1834 9.40237 10.8166 9.40237 11.2071 9.79289L38.2071 36.7929C38.5976 37.1834 38.5976 37.8166 38.2071 38.2071C37.8166 38.5976 37.1834 38.5976 36.7929 38.2071L9.79289 11.2071C9.40237 10.8166 9.40237 10.1834 9.79289 9.79289Z" fill="#002D72"/>
<path fill-rule="evenodd" clip-rule="evenodd" d="M38.2071 9.79289C37.8166 9.40237 37.1834 9.40237 36.7929 9.79289L9.79289 36.7929C9.40237 37.1834 9.40237 37.8166 9.79289 38.2071C10.1834 38.5976 10.8166 38.5976 11.2071 38.2071L38.2071 11.2071C38.5976 10.8166 38.5976 10.1834 38.2071 9.79289Z" fill="#002D72"/>
</svg>
