<svg width="48" height="48" viewBox="0 0 48 48" fill="none" xmlns="http://www.w3.org/2000/svg">
<path d="M23 22C23 21.4477 23.4477 21 24 21C24.5523 21 25 21.4477 25 22V33C25 33.5523 24.5523 34 24 34C23.4477 34 23 33.5523 23 33V22Z" fill="#002D72"/>
<path d="M23 14C23 13.4477 23.4477 13 24 13C24.5523 13 25 13.4477 25 14V16C25 16.5523 24.5523 17 24 17C23.4477 17 23 16.5523 23 16V14Z" fill="#002D72"/>
<path fill-rule="evenodd" clip-rule="evenodd" d="M24 42C33.9411 42 42 33.9411 42 24C42 14.0589 33.9411 6 24 6C14.0589 6 6 14.0589 6 24C6 33.9411 14.0589 42 24 42ZM24 44C35.0457 44 44 35.0457 44 24C44 12.9543 35.0457 4 24 4C12.9543 4 4 12.9543 4 24C4 35.0457 12.9543 44 24 44Z" fill="#002D72"/>
</svg>
