<svg width="48" height="48" viewBox="0 0 48 48" fill="none" xmlns="http://www.w3.org/2000/svg">
<path fill-rule="evenodd" clip-rule="evenodd" d="M4.31075 23.5138C4.31236 23.5121 4.31398 23.5105 4.31561 23.5088L14.8598 12.6966C15.2454 12.3012 15.8706 12.3012 16.2562 12.6966C16.6418 13.092 16.6418 13.733 16.2562 14.1284L7.38536 23.2247H42.9732C43.5255 23.2247 43.9732 23.6724 43.9732 24.2247C43.9732 24.777 43.5255 25.2247 42.9732 25.2247H7.38536L16.2562 34.321C16.6418 34.7164 16.6418 35.3575 16.2562 35.7529C15.8706 36.1483 15.2454 36.1483 14.8598 35.7529L4.31561 24.9406C4.31398 24.939 4.31236 24.9373 4.31075 24.9356C4.12754 24.7544 4.01404 24.5028 4.01404 24.2247C4.01404 23.9466 4.12754 23.6951 4.31075 23.5138Z" fill="#002D72"/>
</svg>
