<svg width="48" height="48" viewBox="0 0 48 48" fill="none" xmlns="http://www.w3.org/2000/svg">
<path fill-rule="evenodd" clip-rule="evenodd" d="M42.0001 10.9569C42.0001 10.2373 41.4168 9.65387 40.6971 9.65387H7.30329C6.58364 9.65387 6.00026 10.2373 6.00026 10.9569C6.00026 11.6765 6.58364 12.2599 7.30329 12.2599H40.6971C41.4168 12.2599 42.0001 11.6765 42.0001 10.9569ZM42.0001 23.7989C42.0001 23.0793 41.4168 22.4959 40.6971 22.4959H7.30329C6.58364 22.4959 6.00026 23.0793 6.00026 23.7989C6.00026 24.5186 6.58364 25.102 7.30329 25.102H40.6971C41.4168 25.102 42.0001 24.5186 42.0001 23.7989ZM40.6971 35.3377C41.4168 35.3377 42.0001 35.9211 42.0001 36.6407C42.0001 37.3604 41.4168 37.9438 40.6971 37.9438H7.30329C6.58364 37.9438 6.00026 37.3604 6.00026 36.6407C6.00026 35.9211 6.58364 35.3377 7.30329 35.3377H40.6971Z" fill="#002D72"/>
</svg>
