<svg width="48" height="48" viewBox="0 0 48 48" fill="none" xmlns="http://www.w3.org/2000/svg">
<path fill-rule="evenodd" clip-rule="evenodd" d="M23.94 40.9399C33.3288 40.9399 40.94 33.3288 40.94 23.9399C40.94 14.5511 33.3288 6.93994 23.94 6.93994C14.5512 6.93994 6.94 14.5511 6.94 23.9399C6.94 33.3288 14.5512 40.9399 23.94 40.9399ZM23.94 43.9399C34.9857 43.9399 43.94 34.9856 43.94 23.9399C43.94 12.8942 34.9857 3.93994 23.94 3.93994C12.8943 3.93994 3.94 12.8942 3.94 23.9399C3.94 34.9856 12.8943 43.9399 23.94 43.9399Z" fill="#002D72"/>
<path d="M31.6067 24.027C32.2733 24.4119 32.2733 25.3742 31.6067 25.7591L20.8567 31.9656C20.19 32.3505 19.3567 31.8694 19.3567 31.0996L19.3567 18.6865C19.3567 17.9167 20.19 17.4356 20.8567 17.8205L31.6067 24.027Z" fill="#002D72"/>
</svg>
