<svg width="48" height="48" viewBox="0 0 48 48" fill="none" xmlns="http://www.w3.org/2000/svg">
<path fill-rule="evenodd" clip-rule="evenodd" d="M43.6764 23.5138C43.6748 23.5121 43.6732 23.5105 43.6716 23.5088L33.1274 12.6966C32.7418 12.3012 32.1166 12.3012 31.731 12.6966C31.3454 13.092 31.3454 13.733 31.731 14.1284L40.6018 23.2247H5.01397C4.46168 23.2247 4.01397 23.6724 4.01397 24.2247C4.01397 24.777 4.46168 25.2247 5.01397 25.2247H40.6018L31.731 34.321C31.3454 34.7164 31.3454 35.3575 31.731 35.7529C32.1166 36.1483 32.7418 36.1483 33.1274 35.7529L43.6716 24.9406C43.6732 24.939 43.6748 24.9373 43.6764 24.9356C43.8596 24.7544 43.9731 24.5028 43.9731 24.2247C43.9731 23.9466 43.8596 23.6951 43.6764 23.5138Z" fill="#002D72"/>
</svg>
