<svg width="48" height="48" viewBox="0 0 48 48" fill="none" xmlns="http://www.w3.org/2000/svg">
<path fill-rule="evenodd" clip-rule="evenodd" d="M19.5 31C25.8513 31 31 25.8513 31 19.5C31 13.1487 25.8513 8 19.5 8C13.1487 8 8 13.1487 8 19.5C8 25.8513 13.1487 31 19.5 31ZM19.5 33C26.9558 33 33 26.9558 33 19.5C33 12.0442 26.9558 6 19.5 6C12.0442 6 6 12.0442 6 19.5C6 26.9558 12.0442 33 19.5 33Z" fill="#081844"/>
<path fill-rule="evenodd" clip-rule="evenodd" d="M40.2322 41.6465L28.2929 29.7072C27.9023 29.3166 27.9023 28.6835 28.2929 28.293C28.6834 27.9024 29.3166 27.9024 29.7071 28.2929L41.6465 40.2323C42.037 40.6228 42.037 41.256 41.6465 41.6465C41.2559 42.037 40.6228 42.037 40.2322 41.6465Z" fill="#081844"/>
</svg>
