<svg width="48" height="48" viewBox="0 0 48 48" fill="none" xmlns="http://www.w3.org/2000/svg">
<path fill-rule="evenodd" clip-rule="evenodd" d="M28.6034 10.6927V8C28.6034 6.89543 27.708 6 26.6034 6H21.2701C20.1655 6 19.2701 6.89543 19.2701 8V10.7752L18.1187 11.3147C17.5091 11.6003 16.9232 11.9287 16.3649 12.2962L15.3341 12.9747L13.1817 11.732C12.2251 11.1797 11.002 11.5075 10.4497 12.4641L7.78301 17.0829C7.23073 18.0395 7.55848 19.2626 8.51506 19.8149L7.51506 21.547C5.60189 20.4424 4.94639 17.996 6.05096 16.0829L8.71763 11.4641C9.8222 9.5509 12.2686 8.89539 14.1817 9.99996L15.2653 10.6256C15.9032 10.2057 16.5729 9.83027 17.2701 9.50362V8C17.2701 5.79086 19.0609 4 21.2701 4H26.6034C28.8125 4 30.6034 5.79086 30.6034 8V9.39895C31.4686 9.78781 32.2929 10.2513 33.0682 10.7812L34.1327 10.1666C36.0459 9.06207 38.4923 9.71757 39.5968 11.6307L42.2635 16.2495C43.3681 18.1627 42.7126 20.6091 40.7994 21.7136L39.951 22.2035C40.0169 22.7932 40.0508 23.3926 40.0508 24C40.0508 24.5687 40.0211 25.1305 39.9632 25.6839L40.7994 26.1667C42.7126 27.2713 43.3681 29.7177 42.2635 31.6308L39.5968 36.2496C38.4923 38.1628 36.0459 38.8183 34.1327 37.7137L33.1626 37.1536C32.3599 37.7108 31.5038 38.1963 30.6034 38.601V40C30.6034 42.2091 28.8125 44 26.6034 44H21.2701C19.0609 44 17.2701 42.2091 17.2701 40V38.4963C16.4695 38.1212 15.7052 37.6818 14.9837 37.1846L14.0674 37.7136C12.1542 38.8182 9.70783 38.1627 8.60326 36.2495L5.93659 31.6307C4.83202 29.7176 5.48752 27.2712 7.40069 26.1666L8.14401 25.7375C8.08238 25.1668 8.05076 24.5871 8.05076 24C8.05076 23.2994 8.09578 22.6094 8.18309 21.9327L7.51506 21.547L8.51506 19.8149L10.3371 20.8669L10.1666 22.1885C10.0903 22.7807 10.0508 23.3852 10.0508 24C10.0508 24.5152 10.0785 25.0232 10.1325 25.5227L10.2723 26.8181L8.40069 27.8987C7.44411 28.451 7.11636 29.6742 7.66864 30.6307L10.3353 35.2495C10.8876 36.2061 12.1108 36.5339 13.0674 35.9816L15.0779 34.8208L16.1184 35.5377C16.75 35.9729 17.4187 36.3573 18.1187 36.6853L19.2701 37.2248V40C19.2701 41.1046 20.1655 42 21.2701 42H26.6034C27.708 42 28.6034 41.1046 28.6034 40V37.3072L29.7835 36.7768C30.5707 36.423 31.3197 35.9982 32.0223 35.5106L33.0643 34.7874L35.1327 35.9817C36.0893 36.534 37.3125 36.2062 37.8648 35.2496L40.5315 30.6308C41.0837 29.6742 40.756 28.4511 39.7994 27.8988L37.839 26.7669L37.974 25.4759C38.0247 24.9915 38.0508 24.4991 38.0508 24C38.0508 23.467 38.0211 22.9417 37.9634 22.4255L37.8181 21.1255L39.7994 19.9816C40.756 19.4293 41.0837 18.2061 40.5315 17.2495L37.8648 12.6307C37.3125 11.6742 36.0893 11.3464 35.1327 11.8987L32.9785 13.1424L31.9397 12.4324C31.261 11.9686 30.5399 11.5631 29.7835 11.2232L28.6034 10.6927Z" fill="#002D72"/>
<path fill-rule="evenodd" clip-rule="evenodd" d="M23.9368 29.5C26.9744 29.5 29.4368 27.0376 29.4368 24C29.4368 20.9624 26.9744 18.5 23.9368 18.5C20.8992 18.5 18.4368 20.9624 18.4368 24C18.4368 27.0376 20.8992 29.5 23.9368 29.5ZM23.9368 31.5C28.0789 31.5 31.4368 28.1421 31.4368 24C31.4368 19.8579 28.0789 16.5 23.9368 16.5C19.7947 16.5 16.4368 19.8579 16.4368 24C16.4368 28.1421 19.7947 31.5 23.9368 31.5Z" fill="#002D72"/>
</svg>
