<svg width="18" height="18" viewBox="0 0 18 18" fill="none" xmlns="http://www.w3.org/2000/svg">
<path d="M1 9H17" stroke="#979797" stroke-width="0.12"/>
<path d="M1 7H17" stroke="#979797" stroke-width="0.12"/>
<path d="M1 11H17" stroke="#979797" stroke-width="0.12"/>
<path d="M16.9401 1.06H1.06006V16.94H16.9401V1.06Z" fill="#EAEAEA" stroke="#979797" stroke-width="0.12"/>
<path d="M9 1V17" stroke="#979797" stroke-width="0.12"/>
<path d="M1 9H17" stroke="#979797" stroke-width="0.12"/>
<path d="M13.9401 3.06H4.06006C3.50777 3.06 3.06006 3.50771 3.06006 4.06V13.94C3.06006 14.4923 3.50777 14.94 4.06006 14.94H13.9401C14.4923 14.94 14.9401 14.4923 14.9401 13.94V4.06C14.9401 3.50771 14.4923 3.06 13.9401 3.06Z" stroke="#979797" stroke-width="0.12"/>
<path d="M14.9401 4.06H3.06006C2.50777 4.06 2.06006 4.50771 2.06006 5.06V12.94C2.06006 13.4923 2.50777 13.94 3.06006 13.94H14.9401C15.4923 13.94 15.9401 13.4923 15.9401 12.94V5.06C15.9401 4.50771 15.4923 4.06 14.9401 4.06Z" stroke="#979797" stroke-width="0.12"/>
<path d="M12.9401 2.06H5.06006C4.50777 2.06 4.06006 2.50771 4.06006 3.06V14.94C4.06006 15.4923 4.50777 15.94 5.06006 15.94H12.9401C13.4923 15.94 13.9401 15.4923 13.9401 14.94V3.06C13.9401 2.50771 13.4923 2.06 12.9401 2.06Z" stroke="#979797" stroke-width="0.12"/>
<path d="M9.00006 15.94C12.8329 15.94 15.9401 12.8329 15.9401 9C15.9401 5.16714 12.8329 2.06 9.00006 2.06C5.1672 2.06 2.06006 5.16714 2.06006 9C2.06006 12.8329 5.1672 15.94 9.00006 15.94Z" stroke="#979797" stroke-width="0.12"/>
<path d="M1 1L17 17" stroke="#979797" stroke-width="0.12"/>
<path d="M17 1L1 17" stroke="#979797" stroke-width="0.12"/>
</svg>
