<svg width="20" height="12" viewBox="0 0 20 12" fill="none" xmlns="http://www.w3.org/2000/svg">
<path fill-rule="evenodd" clip-rule="evenodd" d="M0.394793 5.65313C0.395581 5.65231 0.396372 5.65149 0.397167 5.65067L5.54272 0.374328C5.73089 0.181376 6.03597 0.181376 6.22414 0.374328C6.41231 0.567279 6.41231 0.880116 6.22414 1.07307L1.8952 5.51205H19.262C19.5315 5.51205 19.75 5.73053 19.75 6.00004C19.75 6.26956 19.5315 6.48804 19.262 6.48804H1.8952L6.22414 10.927C6.41231 11.12 6.41231 11.4328 6.22414 11.6258C6.03597 11.8187 5.73089 11.8187 5.54272 11.6258L0.397167 6.34941C0.396372 6.3486 0.395581 6.34778 0.394793 6.34696C0.305389 6.25851 0.25 6.13575 0.25 6.00004C0.25 5.86434 0.305389 5.74158 0.394793 5.65313Z" fill="#002D72"/>
</svg>
