<svg width="113" height="113" viewBox="0 0 113 113" fill="none" xmlns="http://www.w3.org/2000/svg">
<path d="M37.43 77.1076C40.3522 80.0298 39.2896 85.6085 35.0392 89.8589C30.1246 94.9063 18.1702 98.0942 17.6389 98.227C16.7522 98.4635 15.9413 97.6527 16.1778 96.7659C16.3106 96.2346 19.8969 84.0146 24.5459 79.4985C27.0696 76.9748 30.2574 75.5137 33.0468 75.5137C34.7735 75.3808 36.2346 76.045 37.43 77.1076Z" fill="#F68838"/>
<path d="M65.1765 90.8076L66.2372 91.8682L65.1765 90.8076C64.9547 91.0294 64.5858 90.9945 64.4095 90.7351L55.143 77.1016C54.1721 75.6733 52.4491 75.3166 51.0812 75.6115C47.8894 76.2994 43.6858 74.9976 40.4842 71.796C37.1727 68.4845 35.9499 64.2669 36.6633 61.0664C36.9684 59.6977 36.6142 57.9807 35.1976 57.0068L21.6047 47.6616C21.3413 47.4806 21.3131 47.1022 21.5468 46.8841L21.7185 46.7238L21.7374 46.7062L21.7557 46.6879C27.2214 41.2222 34.0848 38.5563 42.5918 38.7297C43.5914 38.7501 44.5688 38.3499 45.2648 37.6179C53.7104 28.7351 61.4668 23.4731 69.4359 20.4285C77.4146 17.3803 85.7159 16.5121 95.3334 16.5771V16.5771H95.3436H95.4688C95.7449 16.5771 95.9688 16.801 95.9688 17.0771V17.3352C95.9688 26.9528 95.0364 35.2548 91.9236 43.219C88.8144 51.1739 83.4865 58.9004 74.5362 67.2842C73.8053 67.9688 73.3976 68.9335 73.4046 69.926C73.4646 78.4356 70.7987 85.1854 65.3267 90.6574L65.1765 90.8076Z" stroke="#081844" stroke-width="3"/>
<circle cx="75.3426" cy="36.6301" r="8.02282" fill="#F68838" stroke="#081844" stroke-width="3"/>
</svg>
