<svg width="113" height="113" viewBox="0 0 113 113" fill="none" xmlns="http://www.w3.org/2000/svg">
<path d="M14.3229 91.3833L41.0067 100.183C42.7564 100.76 44.6484 99.8447 45.2814 98.1144L48.7514 88.6296C49.2437 87.284 50.5241 86.389 51.957 86.389H60.9766C62.5594 86.389 63.9345 85.301 64.2985 83.7607L67.7582 69.1239C68.1222 67.5836 69.4973 66.4956 71.0801 66.4956H72.1582C74.3171 66.4956 75.9583 64.5149 75.5283 62.3992C74.6563 58.1091 73.0932 51.2974 68.3794 34.6663C55.4411 1.37525 23.4135 12.1435 14.8482 24.5387C5.18172 38.5275 13.7631 69.3893 14.8482 75.1764C15.4447 78.3574 13.9124 82.7451 12.2693 86.1571C11.3023 88.1653 12.2062 90.6852 14.3229 91.3833Z" fill="#F68838"/>
<path d="M98.3702 89.9588L71.6864 98.7588C70.7055 99.0822 69.645 98.5689 69.2901 97.599L65.8201 88.1143C65.1115 86.1772 63.2684 84.889 61.2058 84.889H52.1862C51.299 84.889 50.5282 84.2791 50.3241 83.4157L46.8645 68.7789C46.3404 66.5617 44.361 64.9956 42.0828 64.9956H41.0047C39.7802 64.9956 38.8662 63.8705 39.1045 62.698C39.9647 58.4658 41.5136 51.7073 46.2072 35.144C49.3522 27.0822 53.6046 21.7937 58.2633 18.5239C62.9334 15.2461 68.1035 13.9321 73.1777 13.9701C83.4254 14.0468 93.0986 19.6289 97.0806 25.3914C99.3003 28.6036 100.53 32.8791 101.054 37.7006C101.576 42.5077 101.385 47.7426 100.855 52.7761C100.039 60.525 98.4523 67.5972 97.4978 71.8519C97.2064 73.1509 96.9739 74.1872 96.8403 74.9C96.4824 76.809 96.7763 78.9531 97.3152 80.9678C97.8606 83.0067 98.6943 85.0474 99.542 86.8079C100.166 88.1027 99.5218 89.579 98.3702 89.9588Z" stroke="#081844" stroke-width="3"/>
<path d="M52.207 45.0923C55.6613 49.3541 60.092 49.4292 63.1715 45.0923" stroke="black" stroke-width="3" stroke-linecap="round"/>
</svg>
