<svg width="113" height="113" viewBox="0 0 113 113" fill="none" xmlns="http://www.w3.org/2000/svg">
<path fill-rule="evenodd" clip-rule="evenodd" d="M61.938 35.8642V71.8585C61.938 72.7681 61.2006 73.5054 60.291 73.5054H24.096C23.7494 71.608 23.5684 69.6528 23.5684 67.6553C23.5684 49.7889 38.052 35.3052 55.9185 35.3052C57.9754 35.3052 59.9876 35.4972 61.938 35.8642Z" fill="#F68838"/>
<path fill-rule="evenodd" clip-rule="evenodd" d="M87.6312 62.0396L39.7503 62.0396C38.5812 62.0396 37.8604 60.7627 38.4644 59.7617L53.0076 35.6612C53.9309 35.582 54.8653 35.5416 55.8091 35.5416C71.6774 35.5416 84.8772 46.9667 87.6312 62.0396Z" fill="#F68838"/>
<path fill-rule="evenodd" clip-rule="evenodd" d="M61.8286 62.0396L39.7503 62.0396C38.5812 62.0396 37.8604 60.7627 38.4644 59.7617L59.9273 24.1939H60.1817C61.0912 24.1939 61.8286 24.9313 61.8286 25.8409V62.0396Z" fill="#F68838"/>
<path d="M67.335 14.7626C67.5246 14.4483 67.977 14.4387 68.1798 14.7447L97.8594 59.5274C98.0797 59.8597 97.8414 60.3036 97.4426 60.3036L40.7396 60.3036C40.3504 60.3036 40.1104 59.8785 40.3115 59.5452L67.335 14.7626Z" stroke="#081844" stroke-width="3"/>
<mask id="path-6-inside-1" fill="white">
<rect x="12.4546" y="23.9575" width="49.4809" height="49.5479" rx="2"/>
</mask>
<rect x="12.4546" y="23.9575" width="49.4809" height="49.5479" rx="2" stroke="#081844" stroke-width="6" mask="url(#path-6-inside-1)"/>
<circle cx="55.9155" cy="67.6556" r="30.8501" stroke="#081844" stroke-width="3"/>
</svg>
