<svg width="113" height="127" viewBox="0 0 113 127" fill="none" xmlns="http://www.w3.org/2000/svg">
<mask id="mask0" mask-type="alpha" maskUnits="userSpaceOnUse" x="26" y="89" width="60" height="30">
<rect x="28.4023" y="90.7538" width="55.2194" height="26.1097" fill="#F68838" stroke="#081844" stroke-width="3"/>
</mask>
<g mask="url(#mask0)">
<circle cx="56.0131" cy="89.2558" r="27.609" fill="#F68838" stroke="#081844" stroke-width="3"/>
</g>
<circle cx="48.8126" cy="78.1752" r="5.93854" fill="#F68838"/>
<circle cx="59.4105" cy="53.9881" r="4.18685" fill="#F68838"/>
<circle cx="50.8024" cy="42.7491" r="2.70274" fill="#F68838"/>
<circle cx="49.5455" cy="14.2477" r="3.57799" fill="#F68838"/>
<circle cx="56.5435" cy="2.13917" r="1.78908" fill="#F68838"/>
<circle cx="59.8044" cy="31.4321" r="3.7922" fill="#F68838"/>
<mask id="path-10-inside-1" fill="white">
<path fill-rule="evenodd" clip-rule="evenodd" d="M45.8042 22.6439C44.6997 22.6439 43.8042 23.5394 43.8042 24.6439V62.8186C33.8254 67.4346 26.9023 77.5348 26.9023 89.2521C26.9023 105.329 39.9349 118.361 56.0114 118.361C72.0879 118.361 85.1204 105.329 85.1204 89.2521C85.1204 77.5348 78.1973 67.4345 68.2184 62.8185V24.6439C68.2184 23.5394 67.3229 22.6439 66.2184 22.6439H45.8042Z"/>
</mask>
<path d="M43.8042 62.8186L45.0637 65.5414L46.8042 64.7363V62.8186H43.8042ZM68.2184 62.8185H65.2184V64.7362L66.9589 65.5413L68.2184 62.8185ZM46.8042 24.6439C46.8042 25.1962 46.3565 25.6439 45.8042 25.6439V19.6439C43.0428 19.6439 40.8042 21.8825 40.8042 24.6439H46.8042ZM46.8042 62.8186V24.6439H40.8042V62.8186H46.8042ZM29.9023 89.2521C29.9023 78.747 36.1066 69.6848 45.0637 65.5414L42.5447 60.0958C31.5442 65.1844 23.9023 76.3227 23.9023 89.2521H29.9023ZM56.0114 115.361C41.5918 115.361 29.9023 103.672 29.9023 89.2521H23.9023C23.9023 106.985 38.278 121.361 56.0114 121.361V115.361ZM82.1204 89.2521C82.1204 103.672 70.431 115.361 56.0114 115.361V121.361C73.7447 121.361 88.1204 106.985 88.1204 89.2521H82.1204ZM66.9589 65.5413C75.9161 69.6847 82.1204 78.7469 82.1204 89.2521H88.1204C88.1204 76.3226 80.4784 65.1842 69.4778 60.0957L66.9589 65.5413ZM65.2184 24.6439V62.8185H71.2184V24.6439H65.2184ZM66.2184 25.6439C65.6661 25.6439 65.2184 25.1962 65.2184 24.6439H71.2184C71.2184 21.8825 68.9798 19.6439 66.2184 19.6439V25.6439ZM45.8042 25.6439H66.2184V19.6439H45.8042V25.6439Z" fill="#081844" mask="url(#path-10-inside-1)"/>
</svg>
