<svg width="112" height="113" viewBox="0 0 112 113" fill="none" xmlns="http://www.w3.org/2000/svg">
<path fill-rule="evenodd" clip-rule="evenodd" d="M81.9819 58.1559C79.4243 58.1559 77.3414 56.0755 77.3414 53.5167V49.9297H62.8182C62.4679 49.9297 62.1836 49.6453 62.1836 49.295V35.112C62.1836 34.7617 62.4679 34.4774 62.8182 34.4774H67.0399C68.8994 34.4774 70.4124 32.9669 70.4124 31.1074C70.4124 29.2479 68.8994 27.7362 67.0399 27.7362H62.8182C62.4679 27.7362 62.1836 27.4519 62.1836 27.1016V12.9186C62.1836 12.5683 62.4679 12.2839 62.8182 12.2839H99.1934C99.5437 12.2839 99.828 12.5683 99.828 12.9186V26.4669H103.414C105.97 26.4669 108.054 28.5498 108.054 31.1074C108.054 33.665 105.974 35.7467 103.414 35.7467H99.828V49.295C99.828 49.6453 99.5437 49.9297 99.1934 49.9297H86.6199V53.5167C86.6199 56.0743 84.5395 58.1559 81.9819 58.1559ZM80.783 37.887L82.043 39.147L83.303 37.887C87.983 33.747 91.043 30.957 91.043 27.537C91.043 24.747 88.883 22.587 86.093 22.587C84.563 22.587 83.0312 23.307 82.043 24.477C81.053 23.307 79.523 22.587 77.993 22.587C75.203 22.587 73.043 24.747 73.043 27.537C73.043 30.957 76.103 33.747 80.783 37.887Z" fill="#F68838"/>
<path d="M53.4234 75.7626H49.8364V63.1891C49.8364 62.84 49.5521 62.5544 49.2018 62.5544H35.6535V58.9674C35.6535 56.4085 33.5718 54.3269 31.0142 54.3269C28.4566 54.3269 26.3737 56.4098 26.3737 58.9674V62.5544H12.8241C12.4738 62.5544 12.1895 62.84 12.1895 63.1891V99.5655C12.1895 99.9158 12.4738 100.2 12.8241 100.2H27.0071C27.3574 100.2 27.6417 99.9158 27.6417 99.5655V95.3426C27.6417 93.4831 29.1534 91.9714 31.0129 91.9714C32.8712 91.9714 34.3829 93.4831 34.3829 95.3426V99.5655C34.3829 99.9158 34.6672 100.2 35.0175 100.2H49.2005C49.5508 100.2 49.8352 99.9158 49.8352 99.5655V85.0449H53.4222C55.9811 85.0449 58.0614 82.962 58.0614 80.4044C58.0614 77.8468 55.981 75.7626 53.4234 75.7626Z" fill="#F68838"/>
<path d="M48.3364 40.2669V41.7669H49.8364H53.4234C55.151 41.7669 56.5614 43.1778 56.5614 44.9086C56.5614 46.6386 55.1518 48.0491 53.4222 48.0491H49.8352H48.3352V49.5491V63.2044H35.8829V59.8468C35.8829 57.1593 33.7 54.9756 31.0129 54.9756C28.325 54.9756 26.1417 57.1589 26.1417 59.8468V63.2044H13.6895V28.5587H26.3737H27.8737V27.0587V23.4717C27.8737 21.7425 29.285 20.3312 31.0142 20.3312C32.7431 20.3312 34.1535 21.741 34.1535 23.4717V27.0587V28.5587H35.6535H48.3364V40.2669Z" stroke="#081844" stroke-width="3"/>
<mask id="path-5-inside-1" fill="white">
<path fill-rule="evenodd" clip-rule="evenodd" d="M64.5054 66.0958C64.5054 68.6279 66.5449 70.6914 69.0657 70.7344H69.2261C71.6619 70.6928 73.646 68.7635 73.777 66.35V62.5105H86.347C86.6973 62.5105 86.9816 62.7948 86.9816 63.1451V76.6935H90.5673C93.1237 76.6935 95.2079 78.7764 95.2079 81.334C95.2079 83.8916 93.1275 85.9732 90.5673 85.9732H86.9816V99.5216C86.9816 99.8719 86.6973 100.156 86.347 100.156H73.7734V103.743C73.7734 106.301 71.6931 108.382 69.1355 108.382C66.5779 108.382 64.495 106.302 64.495 103.743V100.156H49.9718C49.6215 100.156 49.3372 99.8719 49.3372 99.5216V85.3386C49.3372 84.9883 49.6215 84.7039 49.9718 84.7039H54.1934C56.0529 84.7039 57.5659 83.1935 57.5659 81.334C57.5659 79.4745 56.0529 77.9628 54.1934 77.9628H49.9718C49.6215 77.9628 49.3372 77.6785 49.3372 77.3281V63.1451C49.3372 62.7948 49.6215 62.5105 49.9718 62.5105H64.5054V66.0958Z"/>
</mask>
<path d="M69.0657 70.7344L69.0146 73.7339L69.0401 73.7344H69.0657V70.7344ZM69.2261 70.7344V73.7344H69.2516L69.2772 73.7339L69.2261 70.7344ZM73.777 66.35L76.7726 66.5126L76.777 66.4314V66.35H73.777ZM73.777 62.5105V59.5105H70.777V62.5105H73.777ZM86.9816 76.6935H83.9816V79.6935H86.9816V76.6935ZM86.9816 85.9732V82.9732H83.9816V85.9732H86.9816ZM73.7734 100.156V97.1562H70.7734V100.156H73.7734ZM64.495 100.156H67.495V97.1562H64.495V100.156ZM64.5054 62.5105H67.5054V59.5105H64.5054V62.5105ZM69.1168 67.7348C68.228 67.7197 67.5054 66.9863 67.5054 66.0958H61.5054C61.5054 70.2695 64.8617 73.6632 69.0146 73.7339L69.1168 67.7348ZM69.2261 67.7344H69.0657V73.7344H69.2261V67.7344ZM70.7814 66.1875C70.7353 67.0367 70.0296 67.7202 69.175 67.7348L69.2772 73.7339C73.2942 73.6655 76.5567 70.4903 76.7726 66.5126L70.7814 66.1875ZM70.777 62.5105V66.35H76.777V62.5105H70.777ZM86.347 59.5105H73.777V65.5105H86.347V59.5105ZM89.9816 63.1451C89.9816 61.138 88.3542 59.5105 86.347 59.5105V65.5105C85.0404 65.5105 83.9816 64.4517 83.9816 63.1451H89.9816ZM89.9816 76.6935V63.1451H83.9816V76.6935H89.9816ZM90.5673 73.6935H86.9816V79.6935H90.5673V73.6935ZM98.2079 81.334C98.2079 77.119 94.78 73.6935 90.5673 73.6935V79.6935C91.4674 79.6935 92.2079 80.4338 92.2079 81.334H98.2079ZM90.5673 88.9732C94.7843 88.9732 98.2079 85.5485 98.2079 81.334H92.2079C92.2079 82.2347 91.4706 82.9732 90.5673 82.9732V88.9732ZM86.9816 88.9732H90.5673V82.9732H86.9816V88.9732ZM89.9816 99.5216V85.9732H83.9816V99.5216H89.9816ZM86.347 103.156C88.3541 103.156 89.9816 101.529 89.9816 99.5216H83.9816C83.9816 98.215 85.0404 97.1562 86.347 97.1562V103.156ZM73.7734 103.156H86.347V97.1562H73.7734V103.156ZM76.7734 103.743V100.156H70.7734V103.743H76.7734ZM69.1355 111.382C73.351 111.382 76.7734 107.957 76.7734 103.743H70.7734C70.7734 104.645 70.0352 105.382 69.1355 105.382V111.382ZM61.495 103.743C61.495 107.961 64.9226 111.382 69.1355 111.382V105.382C68.2331 105.382 67.495 104.644 67.495 103.743H61.495ZM61.495 100.156V103.743H67.495V100.156H61.495ZM49.9718 103.156H64.495V97.1562H49.9718V103.156ZM46.3372 99.5216C46.3372 101.529 47.9646 103.156 49.9718 103.156V97.1562C51.2783 97.1562 52.3372 98.215 52.3372 99.5216H46.3372ZM46.3372 85.3386V99.5216H52.3372V85.3386H46.3372ZM49.9718 81.7039C47.9646 81.7039 46.3372 83.3314 46.3372 85.3386H52.3372C52.3372 86.6451 51.2783 87.7039 49.9718 87.7039V81.7039ZM54.1934 81.7039H49.9718V87.7039H54.1934V81.7039ZM54.5659 81.334C54.5659 81.5337 54.399 81.7039 54.1934 81.7039V87.7039C57.7069 87.7039 60.5659 84.8533 60.5659 81.334H54.5659ZM54.1934 80.9628C54.3976 80.9628 54.5659 81.1328 54.5659 81.334H60.5659C60.5659 77.8162 57.7083 74.9628 54.1934 74.9628V80.9628ZM49.9718 80.9628H54.1934V74.9628H49.9718V80.9628ZM46.3372 77.3281C46.3372 79.3353 47.9646 80.9628 49.9718 80.9628V74.9628C51.2783 74.9628 52.3372 76.0216 52.3372 77.3281H46.3372ZM46.3372 63.1451V77.3281H52.3372V63.1451H46.3372ZM49.9718 59.5105C47.9646 59.5105 46.3372 61.138 46.3372 63.1451H52.3372C52.3372 64.4517 51.2783 65.5105 49.9718 65.5105V59.5105ZM64.5054 59.5105H49.9718V65.5105H64.5054V59.5105ZM67.5054 66.0958V62.5105H61.5054V66.0958H67.5054Z" fill="#081844" mask="url(#path-5-inside-1)"/>
</svg>
