<svg width="113" height="113" viewBox="0 0 113 113" fill="none" xmlns="http://www.w3.org/2000/svg">
<mask id="path-2-inside-1" fill="white">
<rect x="8.28125" y="19.8609" width="95.5761" height="71.9825" rx="2"/>
</mask>
<rect x="8.28125" y="19.8609" width="95.5761" height="71.9825" rx="2" stroke="#081844" stroke-width="6" mask="url(#path-2-inside-1)"/>
<path d="M79.0215 9.51587C79.0215 9.23973 79.2453 9.01587 79.5215 9.01587H90.8831C91.1592 9.01587 91.3831 9.23973 91.3831 9.51587V20.9238H79.0215V9.51587Z" fill="#F68838" stroke="#081844" stroke-width="3"/>
<mask id="path-4-inside-2" fill="white">
<rect x="77.5215" y="20.0559" width="15.3616" height="48.5869" rx="0.268626"/>
</mask>
<rect x="77.5215" y="20.0559" width="15.3616" height="48.5869" rx="0.268626" stroke="#081844" stroke-width="6" mask="url(#path-4-inside-2)"/>
<path d="M78.7754 68.6426L85.1612 80.9293C85.263 81.1251 85.5443 81.1215 85.641 80.9232L91.6298 68.6426" stroke="#081844" stroke-width="3" stroke-linecap="round"/>
<path d="M85.0913 20.0559L85.0913 66.5948" stroke="#081844" stroke-width="3"/>
<circle cx="42.9372" cy="55.8521" r="4.71648" fill="white"/>
<path fill-rule="evenodd" clip-rule="evenodd" d="M47.6266 40.4463C48.1349 40.6029 48.624 40.7787 49.0932 40.9737C49.5823 41.1693 50.0509 41.4033 50.501 41.6386L54.1573 39.5078C54.4302 39.3511 54.7825 39.4099 54.998 39.6247L59.181 43.8084C59.4156 44.043 59.4354 44.3946 59.2795 44.669L57.1486 48.2856C57.4024 48.7548 57.6179 49.2241 57.8135 49.6933C58.0085 50.1626 58.185 50.651 58.341 51.1593L62.4268 52.2346C62.7394 52.3126 62.9542 52.606 62.9351 52.9187V58.822C62.9351 59.1545 62.7004 59.448 62.368 59.4869L58.341 60.5431C58.1843 61.0507 58.0085 61.5398 57.8135 62.0091L57.1876 61.7553L57.8135 62.0091L57.7944 62.0487C57.5987 62.518 57.3833 62.9674 57.1493 63.4168L59.2802 67.0731C59.456 67.3461 59.3971 67.6983 59.1625 67.9138L54.9795 72.0975C54.7647 72.3321 54.3933 72.3513 54.1388 72.1953L50.503 70.0645C50.0536 70.319 49.5844 70.5344 49.0953 70.7294C48.626 70.925 48.1376 71.1008 47.6287 71.2568L46.5732 75.3433C46.4952 75.6559 46.2017 75.8707 45.8891 75.8509H39.9857C39.6334 75.8509 39.3598 75.6163 39.3017 75.2845L38.2462 71.2568C37.7379 71.1001 37.2488 70.925 36.7795 70.7294C36.3103 70.5344 35.841 70.319 35.3718 70.0645L31.736 72.1953C31.4432 72.3711 31.0909 72.313 30.8762 72.0777L26.7103 67.8933C26.4756 67.6785 26.4366 67.3071 26.6124 67.0526L28.7234 63.4162C28.4888 62.9667 28.2542 62.4975 28.0585 62.0084C27.8629 61.5391 27.6871 61.0507 27.5311 60.5424L23.4651 59.4863H23.4453C23.132 59.4083 22.937 59.1148 22.937 58.8022V52.8988C22.937 52.5472 23.1915 52.2729 23.5041 52.2148L27.5311 51.1593C27.6878 50.651 27.8636 50.1619 28.0585 49.6933C28.2542 49.2241 28.4888 48.7548 28.7234 48.2856L26.5926 44.6491C26.436 44.3557 26.4948 44.0041 26.7096 43.7893L30.8933 39.6254C31.1279 39.3908 31.4795 39.3518 31.7531 39.5276L35.3697 41.6386C35.839 41.404 36.3082 41.1693 36.7775 40.9737C37.2468 40.7781 37.7352 40.6022 38.2441 40.4463L39.3194 36.3803V36.3604C39.3974 36.0478 39.6909 35.8522 40.0035 35.8522H45.9069C46.2393 35.8522 46.5328 36.1066 46.5718 36.4193L47.6266 40.4463ZM47.197 51.6087C46.1018 50.5142 44.5969 49.8493 42.9354 49.8493C41.2738 49.8493 39.7689 50.5142 38.6935 51.6087C37.599 52.684 36.9341 54.1889 36.9341 55.8512C36.9341 57.5134 37.599 59.0177 38.6935 60.1129C39.7689 61.1875 41.2738 61.8716 42.9354 61.8716C44.5976 61.8716 46.1025 61.1875 47.197 60.1129C48.2717 59.0177 48.9557 57.5128 48.9557 55.8512C48.9557 54.1896 48.2723 52.684 47.197 51.6087Z" fill="#F68838" stroke="#081844" stroke-width="3"/>
</svg>
