<svg width="86" height="4" viewBox="0 0 86 4" fill="none" xmlns="http://www.w3.org/2000/svg">
<path d="M4.13597 2.66667C3.24969 2.19048 2.65884 1.90476 1.47713 1.90476C0.590853 1.90476 0 1.52381 0 0.952382C0 0.380953 0.590853 0 1.47713 0C3.84055 0 5.02225 0.761903 6.05625 1.33333C6.94253 1.80952 7.38567 2.09524 8.71509 2.09524C10.0445 2.09524 10.4876 1.80952 11.3739 1.33333C12.4079 0.761903 13.5896 0 15.953 0C18.3165 0 19.4982 0.761903 20.5322 1.33333C21.4184 1.80952 22.0093 2.09524 23.191 2.09524C24.5204 2.09524 24.9636 1.80952 25.8498 1.33333C26.8838 0.761903 28.0655 0 30.429 0C32.7924 0 33.9741 0.761903 35.0081 1.33333C35.8943 1.80952 36.4852 2.09524 37.6669 2.09524C38.9963 2.09524 39.4395 1.80952 40.3258 1.33333C41.3597 0.761903 42.5415 0 44.9049 0C47.2683 0 48.45 0.761903 49.484 1.33333C50.3703 1.80952 50.9611 2.09524 52.1428 2.09524C53.4722 2.09524 53.9154 1.80952 54.8017 1.33333C55.8357 0.761903 57.0174 0 59.3808 0C61.7442 0 62.9259 0.761903 63.9599 1.33333C64.8462 1.80952 65.437 2.09524 66.6187 2.09524C67.9482 2.09524 68.3913 1.80952 69.2776 1.33333C70.3116 0.761903 71.4933 0 73.8567 0C76.2201 0 77.4018 0.761903 78.4358 1.33333C79.3221 1.80952 79.7652 2.09524 81.0946 2.09524C82.4241 2.09524 82.8672 1.80952 83.7535 1.33333C84.1474 1.20635 85.0829 1.04762 85.6738 1.42857C86.2646 1.80953 85.9199 2.4127 85.6738 2.66667C84.6398 3.2381 83.4581 4 81.0946 4C78.7312 4 77.5495 3.2381 76.5155 2.66667C75.6292 2.19048 75.1861 1.90476 73.8567 1.90476C72.5273 1.90476 72.0841 2.19048 71.1978 2.66667C70.1638 3.2381 68.9821 4 66.6187 4C64.2553 4 63.0736 3.2381 62.0396 2.66667C61.1533 2.19048 60.5625 1.90476 59.3808 1.90476C58.0514 1.90476 57.6082 2.19048 56.7219 2.66667C55.6879 3.2381 54.5062 4 52.1428 4C49.7794 4 48.5977 3.2381 47.5637 2.66667C46.6774 2.19048 46.0866 1.90476 44.9049 1.90476C43.5754 1.90476 43.1323 2.19048 42.246 2.66667C41.212 3.2381 40.0303 4 37.6669 4C35.3035 4 34.1218 3.2381 33.0878 2.66667C32.2015 2.19048 31.6107 1.90476 30.429 1.90476C29.0995 1.90476 28.6564 2.19048 27.7701 2.66667C26.7361 3.2381 25.5544 4 23.191 4C20.8276 4 19.6459 3.2381 18.6119 2.66667C17.7256 2.19048 17.1348 1.90476 15.953 1.90476C14.6236 1.90476 14.1805 2.19048 13.2942 2.66667C12.2602 3.2381 11.0785 4 8.71509 4C6.35168 4 5.16997 3.2381 4.13597 2.66667Z" fill="#F68838"/>
</svg>
